{
    "asset" : {
        "generator" : "Khronos glTF Blender I/O v1.5.17",
        "version" : "2.0"
    },
    "scene" : 0,
    "scenes" : [
        {
            "name" : "Scene",
            "nodes" : [
                5,
                6,
                7
            ]
        }
    ],
    "nodes" : [
        {
            "mesh" : 0,
            "name" : "Object_2"
        },
        {
            "mesh" : 1,
            "name" : "Object_3"
        },
        {
            "mesh" : 2,
            "name" : "Object_4"
        },
        {
            "mesh" : 3,
            "name" : "Object_5"
        },
        {
            "children" : [
                0,
                1,
                2,
                3
            ],
            "name" : "oversized-tshirt.obj.cleaner.materialmerger.gles"
        },
        {
            "children" : [
                4
            ],
            "name" : "Sketchfab_model",
            "rotation" : [
                -0.7071068286895752,
                0,
                0,
                0.7071068286895752
            ]
        },
        {
            "name" : "Light",
            "rotation" : [
                0.16907575726509094,
                0.7558803558349609,
                -0.27217137813568115,
                0.570947527885437
            ],
            "translation" : [
                4.076245307922363,
                5.903861999511719,
                -1.0054539442062378
            ]
        },
        {
            "name" : "Camera",
            "rotation" : [
                0.483536034822464,
                0.33687159419059753,
                -0.20870360732078552,
                0.7804827094078064
            ],
            "translation" : [
                7.358891487121582,
                4.958309173583984,
                6.925790786743164
            ]
        }
    ],
    "materials" : [
        {
            "doubleSided" : true,
            "name" : "Material.001",
            "normalTexture" : {
                "index" : 0,
                "scale" : 0.6628591418266296
            },
            "pbrMetallicRoughness" : {
                "baseColorTexture" : {
                    "index" : 1
                },
                "metallicRoughnessTexture" : {
                    "index" : 2
                }
            }
        }
    ],
    "meshes" : [
        {
            "name" : "Object_0",
            "primitives" : [
                {
                    "attributes" : {
                        "POSITION" : 0,
                        "NORMAL" : 1,
                        "TEXCOORD_0" : 2
                    },
                    "indices" : 3,
                    "material" : 0
                }
            ]
        },
        {
            "name" : "Object_1",
            "primitives" : [
                {
                    "attributes" : {
                        "POSITION" : 4,
                        "NORMAL" : 5,
                        "TEXCOORD_0" : 6
                    },
                    "indices" : 7,
                    "material" : 0
                }
            ]
        },
        {
            "name" : "Object_2",
            "primitives" : [
                {
                    "attributes" : {
                        "POSITION" : 8,
                        "NORMAL" : 9,
                        "TEXCOORD_0" : 10
                    },
                    "indices" : 11,
                    "material" : 0
                }
            ]
        },
        {
            "name" : "Object_3",
            "primitives" : [
                {
                    "attributes" : {
                        "POSITION" : 12,
                        "NORMAL" : 13,
                        "TEXCOORD_0" : 14
                    },
                    "indices" : 15,
                    "material" : 0
                }
            ]
        }
    ],
    "textures" : [
        {
            "sampler" : 0,
            "source" : 0
        },
        {
            "sampler" : 0,
            "source" : 1
        },
        {
            "sampler" : 0,
            "source" : 2
        }
    ],
    "images" : [
        {
            "mimeType" : "image/png",
            "name" : "Material.001_normal",
            "uri" : "Material_001_normal.png"
        },
        {
            "mimeType" : "image/png",
            "name" : "jalisco",
            "uri" : "text4.png"
        },
        {
            "mimeType" : "image/png",
            "name" : "Material.001_metallicRoughness",
            "uri" : "Material.001_metallicRoughness"
        }
    ],
    "accessors" : [
        {
            "bufferView" : 0,
            "componentType" : 5126,
            "count" : 65554,
            "max" : [
                0.324537992477417,
                0.16307899355888367,
                1.3458369970321655
            ],
            "min" : [
                -0.31248798966407776,
                -0.15813300013542175,
                0.9200469851493835
            ],
            "type" : "VEC3"
        },
        {
            "bufferView" : 1,
            "componentType" : 5126,
            "count" : 65554,
            "type" : "VEC3"
        },
        {
            "bufferView" : 2,
            "componentType" : 5126,
            "count" : 65554,
            "type" : "VEC2"
        },
        {
            "bufferView" : 3,
            "componentType" : 5125,
            "count" : 353217,
            "type" : "SCALAR"
        },
        {
            "bufferView" : 4,
            "componentType" : 5126,
            "count" : 65627,
            "max" : [
                0.324537992477417,
                0.16117200255393982,
                1.6308540105819702
            ],
            "min" : [
                -0.24786800146102905,
                -0.1554110050201416,
                0.9314529895782471
            ],
            "type" : "VEC3"
        },
        {
            "bufferView" : 5,
            "componentType" : 5126,
            "count" : 65627,
            "type" : "VEC3"
        },
        {
            "bufferView" : 6,
            "componentType" : 5126,
            "count" : 65627,
            "type" : "VEC2"
        },
        {
            "bufferView" : 7,
            "componentType" : 5125,
            "count" : 357243,
            "type" : "SCALAR"
        },
        {
            "bufferView" : 8,
            "componentType" : 5126,
            "count" : 65732,
            "max" : [
                0.2442460060119629,
                0.16117200255393982,
                1.6244670152664185
            ],
            "min" : [
                -0.30834001302719116,
                -0.1571889966726303,
                0.9321810007095337
            ],
            "type" : "VEC3"
        },
        {
            "bufferView" : 9,
            "componentType" : 5126,
            "count" : 65732,
            "type" : "VEC3"
        },
        {
            "bufferView" : 10,
            "componentType" : 5126,
            "count" : 65732,
            "type" : "VEC2"
        },
        {
            "bufferView" : 11,
            "componentType" : 5125,
            "count" : 346632,
            "type" : "SCALAR"
        },
        {
            "bufferView" : 12,
            "componentType" : 5126,
            "count" : 41423,
            "max" : [
                0.23290599882602692,
                0.16106200218200684,
                1.6240160465240479
            ],
            "min" : [
                -0.23378999531269073,
                -0.009379999712109566,
                0.9324790239334106
            ],
            "type" : "VEC3"
        },
        {
            "bufferView" : 13,
            "componentType" : 5126,
            "count" : 41423,
            "type" : "VEC3"
        },
        {
            "bufferView" : 14,
            "componentType" : 5126,
            "count" : 41423,
            "type" : "VEC2"
        },
        {
            "bufferView" : 15,
            "componentType" : 5123,
            "count" : 221958,
            "type" : "SCALAR"
        }
    ],
    "bufferViews" : [
        {
            "buffer" : 0,
            "byteLength" : 786648,
            "byteOffset" : 0
        },
        {
            "buffer" : 0,
            "byteLength" : 786648,
            "byteOffset" : 786648
        },
        {
            "buffer" : 0,
            "byteLength" : 524432,
            "byteOffset" : 1573296
        },
        {
            "buffer" : 0,
            "byteLength" : 1412868,
            "byteOffset" : 2097728
        },
        {
            "buffer" : 0,
            "byteLength" : 787524,
            "byteOffset" : 3510596
        },
        {
            "buffer" : 0,
            "byteLength" : 787524,
            "byteOffset" : 4298120
        },
        {
            "buffer" : 0,
            "byteLength" : 525016,
            "byteOffset" : 5085644
        },
        {
            "buffer" : 0,
            "byteLength" : 1428972,
            "byteOffset" : 5610660
        },
        {
            "buffer" : 0,
            "byteLength" : 788784,
            "byteOffset" : 7039632
        },
        {
            "buffer" : 0,
            "byteLength" : 788784,
            "byteOffset" : 7828416
        },
        {
            "buffer" : 0,
            "byteLength" : 525856,
            "byteOffset" : 8617200
        },
        {
            "buffer" : 0,
            "byteLength" : 1386528,
            "byteOffset" : 9143056
        },
        {
            "buffer" : 0,
            "byteLength" : 497076,
            "byteOffset" : 10529584
        },
        {
            "buffer" : 0,
            "byteLength" : 497076,
            "byteOffset" : 11026660
        },
        {
            "buffer" : 0,
            "byteLength" : 331384,
            "byteOffset" : 11523736
        },
        {
            "buffer" : 0,
            "byteLength" : 443916,
            "byteOffset" : 11855120
        }
    ],
    "samplers" : [
        {
            "magFilter" : 9729,
            "minFilter" : 9987
        }
    ],
    "buffers" : [
        {
            "byteLength" : 12299036,
            "uri" : "camisa3.bin"
        }
    ]
}
